<svg xmlns="http://www.w3.org/2000/svg" viewBox="0 0 240 170" fill="none" role="img" aria-label="Empaque retornable">
  <ellipse cx="120" cy="150" rx="74" ry="10" fill="#000000" opacity="0.28"/>
  <!-- Bin body -->
  <polygon points="70,72 170,72 160,140 80,140" fill="#3a4861"/>
  <polygon points="70,72 170,72 166,86 74,86" fill="#46566f"/>
  <!-- Top rim -->
  <polygon points="62,60 178,60 172,74 68,74" fill="#2fbf71"/>
  <polygon points="74,64 166,64 162,70 78,70" fill="#22303f"/>
  <!-- Ribs -->
  <line x1="100" y1="88" x2="97" y2="136" stroke="#2c3850" stroke-width="3"/>
  <line x1="120" y1="88" x2="120" y2="136" stroke="#2c3850" stroke-width="3"/>
  <line x1="140" y1="88" x2="143" y2="136" stroke="#2c3850" stroke-width="3"/>
  <!-- Handle -->
  <rect x="108" y="92" width="24" height="9" rx="4.5" fill="#2fbf71"/>
  <!-- ESD label -->
  <rect x="84" y="110" width="22" height="15" rx="2" fill="#2fbf71" opacity="0.92"/>
  <path d="M89 117.5l3 3 6-6.5" stroke="#13351f" stroke-width="2.2" stroke-linecap="round" stroke-linejoin="round"/>
</svg>
